<svg xmlns="http://www.w3.org/2000/svg" viewBox="0 0 600 400" width="100%" height="100%">
  <defs>
    <linearGradient id="bg-headphonehanger" x1="0%" y1="0%" x2="100%" y2="100%">
      <stop offset="0%" stop-color="#0b0f19" />
      <stop offset="60%" stop-color="#111827" />
      <stop offset="100%" stop-color="#030712" />
    </linearGradient>
    <radialGradient id="glow-headphonehanger" cx="50%" cy="45%" r="60%">
      <stop offset="0%" stop-color="#9d174d" stop-opacity="0.3" />
      <stop offset="100%" stop-color="#9d174d" stop-opacity="0" />
    </radialGradient>
    <filter id="shadow" x="-20%" y="-20%" width="140%" height="140%">
      <feDropShadow dx="0" dy="10" stdDeviation="16" flood-color="#ec4899" flood-opacity="0.35" />
    </filter>
  </defs>
  <rect width="600" height="400" fill="url(#bg-headphonehanger)" />
  <rect width="600" height="400" fill="url(#glow-headphonehanger)" />
  
  <!-- Perspective Print Bed Grid -->
  <g stroke="#1f2937" stroke-width="1.2" opacity="0.6">
    <path d="M50 340 L550 340 M100 365 L500 365 M150 385 L450 385" stroke-dasharray="6 4" />
    <path d="M150 385 L50 340 M250 385 L200 340 M350 385 L400 340 M450 385 L550 340" />
  </g>

  <!-- Main Themed Illustration -->
  <g filter="url(#shadow)">
    
    <!-- Desk Shelf Edge -->
    <rect x="150" y="140" width="180" height="20" rx="2" fill="#334155" stroke="#64748b" stroke-width="2" />
    <!-- C-Clamp Top & Screw -->
    <rect x="230" y="125" width="40" height="50" rx="3" fill="#1e293b" stroke="#ec4899" stroke-width="2" />
    <rect x="245" y="165" width="10" height="35" fill="#94a3b8" />
    <!-- Arm Extending Out -->
    <path d="M250 170 L250 220 L350 220" fill="none" stroke="#ec4899" stroke-width="8" stroke-linecap="round" stroke-linejoin="round" />
    <!-- Curved Headband Rest -->
    <path d="M330 220 Q350 205 370 220" fill="none" stroke="#f472b6" stroke-width="12" stroke-linecap="round" />
    <!-- Hanging Headphones -->
    <!-- Headband -->
    <path d="M320 220 C300 230, 300 270, 315 285" fill="none" stroke="#475569" stroke-width="6" />
    <path d="M380 220 C400 230, 400 270, 385 285" fill="none" stroke="#475569" stroke-width="6" />
    <!-- Ear Cups -->
    <rect x="305" y="275" width="22" height="35" rx="8" fill="#1e1b4b" stroke="#a855f7" stroke-width="3" />
    <rect x="375" y="275" width="22" height="35" rx="8" fill="#1e1b4b" stroke="#a855f7" stroke-width="3" />
  
  </g>

  <!-- Badges -->
  <rect x="24" y="24" width="auto" height="26" rx="6" fill="#1e293b" stroke="#334155" opacity="0.9" />
  <text x="36" y="41" fill="#ec4899" font-family="system-ui, -apple-system, sans-serif" font-size="11" font-weight="700" letter-spacing="1.5">DESK ACCESSORIES</text>
  <text x="576" y="41" fill="#64748b" font-family="system-ui, -apple-system, sans-serif" font-size="11" font-weight="600" text-anchor="end">HEADPHONE HANGER</text>
</svg>