<svg xmlns="http://www.w3.org/2000/svg" viewBox="0 0 600 400" width="100%" height="100%">
  <defs>
    <linearGradient id="bg-moonlamp3d" x1="0%" y1="0%" x2="100%" y2="100%">
      <stop offset="0%" stop-color="#0b0f19" />
      <stop offset="60%" stop-color="#111827" />
      <stop offset="100%" stop-color="#030712" />
    </linearGradient>
    <radialGradient id="glow-moonlamp3d" cx="50%" cy="45%" r="60%">
      <stop offset="0%" stop-color="#ca8a04" stop-opacity="0.3" />
      <stop offset="100%" stop-color="#ca8a04" stop-opacity="0" />
    </radialGradient>
    <filter id="shadow" x="-20%" y="-20%" width="140%" height="140%">
      <feDropShadow dx="0" dy="10" stdDeviation="16" flood-color="#fef08a" flood-opacity="0.35" />
    </filter>
  </defs>
  <rect width="600" height="400" fill="url(#bg-moonlamp3d)" />
  <rect width="600" height="400" fill="url(#glow-moonlamp3d)" />
  
  <!-- Perspective Print Bed Grid -->
  <g stroke="#1f2937" stroke-width="1.2" opacity="0.6">
    <path d="M50 340 L550 340 M100 365 L500 365 M150 385 L450 385" stroke-dasharray="6 4" />
    <path d="M150 385 L50 340 M250 385 L200 340 M350 385 L400 340 M450 385 L550 340" />
  </g>

  <!-- Main Themed Illustration -->
  <g filter="url(#shadow)">
    
    <!-- Moon Sphere -->
    <circle cx="300" cy="180" r="85" fill="#fef9c3" stroke="#fef08a" stroke-width="3" />
    <!-- Moon Craters -->
    <ellipse cx="270" cy="160" rx="16" ry="12" fill="#fde047" opacity="0.6" />
    <ellipse cx="330" cy="150" rx="22" ry="16" fill="#fde047" opacity="0.6" />
    <ellipse cx="295" cy="210" rx="26" ry="18" fill="#fde047" opacity="0.6" />
    <ellipse cx="345" cy="215" rx="14" ry="10" fill="#fde047" opacity="0.6" />
    <ellipse cx="245" cy="200" rx="10" ry="8" fill="#fde047" opacity="0.6" />
    <!-- Wooden Tripod Base -->
    <polygon points="300,240 240,330 255,330 300,255" fill="#b45309" stroke="#78350f" stroke-width="1.5" />
    <polygon points="300,240 360,330 345,330 300,255" fill="#d97706" stroke="#78350f" stroke-width="1.5" />
    <polygon points="295,245 305,245 305,320 295,320" fill="#92400e" />
  
  </g>

  <!-- Badges -->
  <rect x="24" y="24" width="auto" height="26" rx="6" fill="#1e293b" stroke="#334155" opacity="0.9" />
  <text x="36" y="41" fill="#fef08a" font-family="system-ui, -apple-system, sans-serif" font-size="11" font-weight="700" letter-spacing="1.5">HOME & LIGHTING</text>
  <text x="576" y="41" fill="#64748b" font-family="system-ui, -apple-system, sans-serif" font-size="11" font-weight="600" text-anchor="end">MOON LAMP 3D</text>
</svg>