<svg xmlns="http://www.w3.org/2000/svg" viewBox="0 0 600 400" width="100%" height="100%">
  <defs>
    <linearGradient id="bg-cyberpunkonimask" x1="0%" y1="0%" x2="100%" y2="100%">
      <stop offset="0%" stop-color="#0b0f19" />
      <stop offset="60%" stop-color="#111827" />
      <stop offset="100%" stop-color="#030712" />
    </linearGradient>
    <radialGradient id="glow-cyberpunkonimask" cx="50%" cy="45%" r="60%">
      <stop offset="0%" stop-color="#b91c1c" stop-opacity="0.3" />
      <stop offset="100%" stop-color="#b91c1c" stop-opacity="0" />
    </radialGradient>
    <filter id="shadow" x="-20%" y="-20%" width="140%" height="140%">
      <feDropShadow dx="0" dy="10" stdDeviation="16" flood-color="#ef4444" flood-opacity="0.35" />
    </filter>
  </defs>
  <rect width="600" height="400" fill="url(#bg-cyberpunkonimask)" />
  <rect width="600" height="400" fill="url(#glow-cyberpunkonimask)" />
  
  <!-- Perspective Print Bed Grid -->
  <g stroke="#1f2937" stroke-width="1.2" opacity="0.6">
    <path d="M50 340 L550 340 M100 365 L500 365 M150 385 L450 385" stroke-dasharray="6 4" />
    <path d="M150 385 L50 340 M250 385 L200 340 M350 385 L400 340 M450 385 L550 340" />
  </g>

  <!-- Main Themed Illustration -->
  <g filter="url(#shadow)">
    
    <!-- Mask Brow & Horns -->
    <polygon points="240,160 210,90 255,140" fill="#dc2626" stroke="#fca5a5" stroke-width="2" />
    <polygon points="360,160 390,90 345,140" fill="#dc2626" stroke="#fca5a5" stroke-width="2" />
    <!-- Face Shield -->
    <polygon points="230,160 370,160 360,280 300,320 240,280" fill="#1e1b4b" stroke="#ef4444" stroke-width="3" />
    <!-- Angry Slanted Eyes -->
    <polygon points="255,185 285,195 260,205" fill="#facc15" stroke="#fef08a" stroke-width="1.5" />
    <polygon points="345,185 315,195 340,205" fill="#facc15" stroke="#fef08a" stroke-width="1.5" />
    <!-- Fanged Teeth Grin -->
    <path d="M260 240 L270 255 L280 240 L290 255 L300 240 L310 255 L320 240 L330 255 L340 240" stroke="#f8fafc" stroke-width="3" stroke-linecap="round" />
    <!-- Respirator Canisters (Cyberpunk) -->
    <circle cx="230" cy="250" r="18" fill="#334155" stroke="#22d3ee" stroke-width="2.5" />
    <circle cx="370" cy="250" r="18" fill="#334155" stroke="#22d3ee" stroke-width="2.5" />
  
  </g>

  <!-- Badges -->
  <rect x="24" y="24" width="auto" height="26" rx="6" fill="#1e293b" stroke="#334155" opacity="0.9" />
  <text x="36" y="41" fill="#ef4444" font-family="system-ui, -apple-system, sans-serif" font-size="11" font-weight="700" letter-spacing="1.5">COSPLAY & PROPS</text>
  <text x="576" y="41" fill="#64748b" font-family="system-ui, -apple-system, sans-serif" font-size="11" font-weight="600" text-anchor="end">CYBERPUNK ONI MASK</text>
</svg>